<?xml version="1.0" encoding="iso-8859-1"?>
<!-- Generator: Adobe Illustrator 19.0.0, SVG Export Plug-In . SVG Version: 6.00 Build 0)  -->
<svg xmlns="http://www.w3.org/2000/svg" xmlns:xlink="http://www.w3.org/1999/xlink" version="1.1" id="Capa_1" x="0px" y="0px" viewBox="0 0 480 480" style="enable-background:new 0 0 480 480;" xml:space="preserve" width="512px" height="512px">
<g>
	<g>
		<path d="M456,0H24C10.745,0,0,10.745,0,24s10.745,24,24,24v248c0,4.418,3.582,8,8,8h176v8c0,13.255,10.745,24,24,24v72.472    c-36.414,4.108-63.95,34.883-64,71.528h16c0-30.928,25.072-56,56-56c30.928,0,56,25.072,56,56h16    c-0.05-36.645-27.586-67.42-64-71.528V336c13.255,0,24-10.745,24-24v-8h176c4.418,0,8-3.582,8-8V48c13.255,0,24-10.745,24-24    S469.255,0,456,0z M256,312c0,4.418-3.582,8-8,8h-16c-4.418,0-8-3.582-8-8v-8h32V312z M440,288H40V48h400V288z M456,32H24    c-4.418,0-8-3.582-8-8s3.582-8,8-8h432c4.418,0,8,3.582,8,8S460.418,32,456,32z" fill="#FFFFFF"/>
	</g>
</g>
<g>
	<g>
		<path d="M336,88c-4.418,0-8,3.582-8,8s3.582,8,8,8h28.688L240,228.688l-66.344-66.344c-3.124-3.123-8.188-3.123-11.312,0l-88,88    c-3.124,3.125-3.123,8.19,0.002,11.314C75.846,263.157,77.879,264,80,264c2.122,0,4.156-0.844,5.656-2.344L168,179.312    l66.344,66.344c3.124,3.123,8.188,3.123,11.312,0L376,115.312V144c0,4.418,3.582,8,8,8s8-3.582,8-8V88H336z" fill="#FFFFFF"/>
	</g>
</g>
<g>
</g>
<g>
</g>
<g>
</g>
<g>
</g>
<g>
</g>
<g>
</g>
<g>
</g>
<g>
</g>
<g>
</g>
<g>
</g>
<g>
</g>
<g>
</g>
<g>
</g>
<g>
</g>
<g>
</g>
</svg>
