<?xml version="1.0" encoding="iso-8859-1"?>
<!-- Generator: Adobe Illustrator 19.0.0, SVG Export Plug-In . SVG Version: 6.00 Build 0)  -->
<svg xmlns="http://www.w3.org/2000/svg" xmlns:xlink="http://www.w3.org/1999/xlink" version="1.1" id="Capa_1" x="0px" y="0px" viewBox="0 0 512 512" style="enable-background:new 0 0 512 512;" xml:space="preserve" width="512px" height="512px">
<g>
	<g>
		<path d="M463.868,326.358c-3.145-1.815-6.513-3.178-9.998-4.081V189.721c3.483-0.901,6.852-2.264,10-4.08    c19.095-11.026,25.663-35.537,14.638-54.643c-11.068-19.16-35.523-25.688-54.63-14.644c-3.113,1.793-5.954,3.999-8.462,6.535    L294.498,50.814C295.482,47.311,296,43.673,296,40c0-22.056-17.944-40-40-40c-22.056,0-40,17.944-40,40    c0,3.673,0.518,7.311,1.502,10.814L96.584,122.89c-2.506-2.535-5.344-4.739-8.45-6.527c-19.133-11.062-43.579-4.516-54.646,14.64    c-11.021,19.102-4.454,43.612,14.644,54.64c3.147,1.816,6.515,3.178,9.998,4.079v132.557c-3.485,0.903-6.854,2.266-10,4.082    c-19.095,11.026-25.663,35.537-14.638,54.643c11.031,19.096,35.543,25.666,54.63,14.644c3.113-1.793,5.954-3.999,8.462-6.535    l120.918,72.076c-0.984,3.5-1.502,7.138-1.502,10.811c0,22.056,17.944,40,40,40c22.056,0,40-17.944,40-40    c0-3.673-0.518-7.311-1.502-10.814l120.918-72.076c2.507,2.536,5.346,4.741,8.454,6.531c19.173,11.069,43.65,4.382,54.642-14.643    C489.533,361.896,482.966,337.386,463.868,326.358z M433.875,133.677c9.586-5.539,21.797-2.228,27.314,7.321    c5.512,9.553,2.229,21.81-7.316,27.321c-9.558,5.514-21.81,2.243-27.33-7.316C421.116,151.597,424.161,139.273,433.875,133.677z     M284.44,68.102l120.937,72.087c-1.933,6.923-1.983,14.26-0.128,21.198l-59.194,31.454c-18.56-26.386-47.97-43.416-80.055-46.37    V78.709C272.983,76.895,279.368,73.223,284.44,68.102z M256,286c25.879,0,47.227,19.763,49.749,44.99    C291.004,340.817,273.917,346,256,346c-17.916,0-35.002-5.183-49.749-15.01C208.773,305.763,230.121,286,256,286z M226,236    c0-16.542,13.458-30,30-30s30,13.458,30,30s-13.458,30-30,30S226,252.542,226,236z M288.442,274.001    C299.176,264.823,306,251.197,306,236c0-27.57-22.43-50-50-50s-50,22.43-50,50c0,15.197,6.824,28.823,17.559,38.001    c-16.544,8.692-29.198,23.803-34.635,42.008C174.073,299.432,166,278.111,166,256c0-50.441,41.138-90,90-90    c32.029,0,61.904,17.242,77.965,44.999v-0.001C341.838,224.608,346,240.17,346,256c0,22.126-8.081,43.441-22.924,60.009    C317.64,297.804,304.985,282.693,288.442,274.001z M256,20c11.028,0,20,8.972,20,20c0,11.105-9.069,20-20,20    c-10.913,0-20-8.882-20-20C236,28.972,244.972,20,256,20z M227.563,68.1c5.074,5.124,11.458,8.795,18.437,10.609v67.762    c-32.085,2.954-61.495,19.984-80.055,46.37l-59.194-31.454c1.854-6.937,1.805-14.274-0.129-21.198L227.563,68.1z M50.809,141.002    c5.49-9.501,17.677-12.896,27.33-7.317c9.607,5.534,12.798,17.823,7.322,27.314c-5.45,9.437-17.662,12.9-27.33,7.321    C48.583,162.808,45.299,150.551,50.809,141.002z M78.13,378.32c-9.549,5.514-21.804,2.228-27.318-7.318    c-5.512-9.553-2.229-21.81,7.316-27.321c9.717-5.606,21.888-2.091,27.33,7.316C90.903,360.436,87.807,372.746,78.13,378.32z     M78.13,322.289V189.704c7.123-1.851,13.62-5.637,18.743-10.917l59.102,31.404C149.43,224.493,146,240.138,146,256    c0,15.861,3.429,31.506,9.975,45.808l-59.104,31.406C91.746,327.932,85.251,324.142,78.13,322.289z M227.56,443.898    l-120.937-72.087c1.932-6.922,1.982-14.258,0.127-21.198l59.2-31.457c17.911,25.535,46.703,43.405,80.049,46.384v67.751    C239.017,435.105,232.632,438.777,227.56,443.898z M256,492c-11.028,0-20-8.972-20-20c0-11.105,9.069-20,20-20    c10.913,0,20,8.882,20,20C276,483.028,267.028,492,256,492z M284.437,443.9c-5.074-5.124-11.458-8.795-18.437-10.609V365.54    c33.312-2.976,62.119-20.823,80.049-46.384l59.199,31.457c-1.854,6.937-1.805,14.274,0.129,21.198L284.437,443.9z M415.13,333.215    l-59.105-31.406C362.57,287.507,366,271.862,366,256s-3.43-31.507-9.975-45.808l59.101-31.404    c5.124,5.281,11.621,9.068,18.743,10.918v132.582h0.001C426.752,324.141,420.257,327.931,415.13,333.215z M461.191,370.998    c-5.518,9.55-17.773,12.832-27.33,7.317c-9.662-5.565-12.765-17.88-7.326-27.308c5.43-9.385,17.585-12.955,27.334-7.328    C463.417,349.192,466.701,361.449,461.191,370.998z" fill="#FFFFFF"/>
	</g>
</g>
<g>
</g>
<g>
</g>
<g>
</g>
<g>
</g>
<g>
</g>
<g>
</g>
<g>
</g>
<g>
</g>
<g>
</g>
<g>
</g>
<g>
</g>
<g>
</g>
<g>
</g>
<g>
</g>
<g>
</g>
</svg>
