<?xml version="1.0" encoding="iso-8859-1"?>
<!-- Generator: Adobe Illustrator 19.0.0, SVG Export Plug-In . SVG Version: 6.00 Build 0)  -->
<svg xmlns="http://www.w3.org/2000/svg" xmlns:xlink="http://www.w3.org/1999/xlink" version="1.1" id="Capa_1" x="0px" y="0px" viewBox="0 0 512 512" style="enable-background:new 0 0 512 512;" xml:space="preserve" width="512px" height="512px">
<g>
	<g>
		<path d="M113.794,108.974c-3.308-2.493-8.009-1.834-10.503,1.473l-25.797,34.209l-12.471-15.242    c-2.623-3.206-7.349-3.677-10.553-1.055c-3.206,2.622-3.679,7.347-1.056,10.553l18.515,22.63c1.425,1.742,3.557,2.75,5.804,2.75    c0.049,0,0.098-0.001,0.148-0.001c2.3-0.046,4.453-1.145,5.839-2.983l31.547-41.831    C117.76,116.17,117.101,111.468,113.794,108.974z" fill="#FFFFFF"/>
	</g>
</g>
<g>
	<g>
		<path d="M113.794,199.636c-3.308-2.493-8.009-1.834-10.503,1.473l-25.797,34.209l-12.471-15.242    c-2.623-3.207-7.349-3.678-10.553-1.056c-3.206,2.623-3.679,7.348-1.056,10.553l18.515,22.63c1.425,1.743,3.557,2.751,5.804,2.751    c0.049,0,0.098-0.001,0.148-0.002c2.3-0.046,4.453-1.145,5.839-2.983l31.547-41.83C117.76,206.832,117.101,202.13,113.794,199.636    z" fill="#FFFFFF"/>
	</g>
</g>
<g>
	<g>
		<path d="M113.794,290.296c-3.308-2.493-8.009-1.834-10.503,1.473l-25.797,34.21l-12.471-15.242    c-2.623-3.207-7.349-3.678-10.553-1.056c-3.206,2.623-3.679,7.348-1.056,10.553l18.515,22.63c1.425,1.743,3.557,2.751,5.804,2.751    c0.049,0,0.098,0,0.148-0.001c2.3-0.046,4.453-1.145,5.839-2.983l31.547-41.832C117.76,297.492,117.101,292.79,113.794,290.296z" fill="#FFFFFF"/>
	</g>
</g>
<g>
	<g>
		<path d="M338.195,145.01h-162.32c-4.142,0-7.499,3.358-7.499,7.499s3.357,7.499,7.499,7.499h162.32    c4.142,0,7.499-3.358,7.499-7.499C345.694,148.367,342.337,145.01,338.195,145.01z" fill="#FFFFFF"/>
	</g>
</g>
<g>
	<g>
		<path d="M338.195,205.338h-162.32c-4.142,0-7.499,3.358-7.499,7.499s3.357,7.499,7.499,7.499h162.32    c4.142,0,7.499-3.358,7.499-7.499S342.337,205.338,338.195,205.338z" fill="#FFFFFF"/>
	</g>
</g>
<g>
	<g>
		<path d="M338.195,235.085h-162.32c-4.142,0-7.499,3.358-7.499,7.499s3.357,7.499,7.499,7.499h162.32    c4.142,0,7.499-3.358,7.499-7.499S342.337,235.085,338.195,235.085z" fill="#FFFFFF"/>
	</g>
</g>
<g>
	<g>
		<path d="M338.195,295.413h-162.32c-4.142,0-7.499,3.358-7.499,7.499s3.357,7.499,7.499,7.499h162.32    c4.142,0,7.499-3.358,7.499-7.499S342.337,295.413,338.195,295.413z" fill="#FFFFFF"/>
	</g>
</g>
<g>
	<g>
		<path d="M338.195,385.488h-162.32c-4.142,0-7.499,3.358-7.499,7.499s3.357,7.499,7.499,7.499h162.32    c4.142,0,7.499-3.358,7.499-7.499S342.337,385.488,338.195,385.488z" fill="#FFFFFF"/>
	</g>
</g>
<g>
	<g>
		<path d="M338.195,415.236h-162.32c-4.142,0-7.499,3.358-7.499,7.499s3.357,7.499,7.499,7.499h162.32    c4.142,0,7.499-3.358,7.499-7.499S342.337,415.236,338.195,415.236z" fill="#FFFFFF"/>
	</g>
</g>
<g>
	<g>
		<path d="M368.248,24.748h-26.693V7.499c0-4.142-3.357-7.499-7.499-7.499c-4.142,0-7.499,3.358-7.499,7.499v17.248h-28.83V7.499    c0-4.142-3.357-7.499-7.499-7.499c-4.142,0-7.499,3.358-7.499,7.499v17.248h-28.831V7.499c0-4.142-3.357-7.499-7.499-7.499    c-4.142,0-7.499,3.358-7.499,7.499v17.248h-28.831V7.499c0-4.142-3.357-7.499-7.499-7.499c-4.142,0-7.499,3.358-7.499,7.499    v17.248H166.24V7.499c0-4.142-3.357-7.499-7.499-7.499c-4.142,0-7.499,3.358-7.499,7.499v17.248h-28.831V7.499    c0-4.142-3.357-7.499-7.499-7.499c-4.142,0-7.499,3.358-7.499,7.499v17.248H78.579V7.499C78.579,3.358,75.222,0,71.08,0    c-4.142,0-7.499,3.358-7.499,7.499v17.248H36.889c-10.288,0-18.659,8.37-18.659,18.659v449.935C18.23,503.63,26.6,512,36.889,512    h331.359c10.288,0,18.659-8.37,18.659-18.659V43.406C386.906,33.118,378.536,24.748,368.248,24.748z M368.248,497.001H36.889    c-2.018,0-3.66-1.642-3.66-3.66V43.406c0-2.018,1.641-3.66,3.66-3.66h26.692v17.249c0,4.142,3.357,7.499,7.499,7.499    c4.142,0,7.499-3.358,7.499-7.499V39.747h28.831v17.249c0,4.142,3.357,7.499,7.499,7.499c4.142,0,7.499-3.358,7.499-7.499V39.747    h28.831v17.249c0,4.142,3.357,7.499,7.499,7.499c4.142,0,7.499-3.358,7.499-7.499V39.747h28.831v17.249    c0,4.142,3.357,7.499,7.499,7.499c4.142,0,7.499-3.358,7.499-7.499V39.747h28.831v17.249c0,4.142,3.357,7.499,7.499,7.499    c4.142,0,7.499-3.358,7.499-7.499V39.747h28.831v17.249c0,4.142,3.357,7.499,7.499,7.499c4.142,0,7.499-3.358,7.499-7.499V39.747    h28.83v17.249c0,4.142,3.357,7.499,7.499,7.499c4.142,0,7.499-3.358,7.499-7.499V39.747h26.693c2.018,0,3.66,1.642,3.66,3.66    v449.934h0.003C371.908,495.359,370.267,497.001,368.248,497.001z" fill="#FFFFFF"/>
	</g>
</g>
<g>
	<g>
		<path d="M475.98,29.497h-34.492c-9.809,0-17.79,7.98-17.79,17.79v383.108c0,0.019,0,0.039,0,0.058v1.346l25.642,68.954    c1.474,3.966,5.161,6.53,9.393,6.531c0,0,0.001,0,0.002,0c4.231,0,7.918-2.563,9.394-6.53l25.641-68.955v-1.346    c0-0.019,0-0.039,0-0.058V47.287C493.77,37.478,485.789,29.497,475.98,29.497z M458.735,482.985l-18.083-48.626    c11.656-4.462,24.509-4.462,36.164,0L458.735,482.985z M478.771,419.149c-13.039-4.19-27.034-4.19-40.074,0V111.577h40.074    V419.149z M478.771,96.578h-40.074V47.287c0-1.539,1.252-2.791,2.791-2.791h34.492c1.539,0,2.791,1.252,2.791,2.791V96.578z" fill="#FFFFFF"/>
	</g>
</g>
<g>
	<g>
		<path d="M338.195,114.928H230.652c-4.142,0-7.499,3.358-7.499,7.499s3.357,7.499,7.499,7.499h107.543    c4.142,0,7.499-3.358,7.499-7.499S342.338,114.928,338.195,114.928z" fill="#FFFFFF"/>
	</g>
</g>
<g>
	<g>
		<path d="M195.759,114.929h-19.883c-4.142,0-7.499,3.358-7.499,7.499s3.356,7.499,7.499,7.499h19.883    c4.142,0,7.499-3.358,7.499-7.499S199.901,114.929,195.759,114.929z" fill="#FFFFFF"/>
	</g>
</g>
<g>
	<g>
		<path d="M338.195,325.161h-19.884c-4.142,0-7.499,3.358-7.499,7.499s3.357,7.499,7.499,7.499h19.884    c4.142,0,7.499-3.358,7.499-7.499S342.338,325.161,338.195,325.161z" fill="#FFFFFF"/>
	</g>
</g>
<g>
	<g>
		<path d="M283.418,325.161H175.876c-4.142,0-7.499,3.358-7.499,7.499s3.357,7.499,7.499,7.499h107.542    c4.142,0,7.499-3.358,7.499-7.499S287.56,325.161,283.418,325.161z" fill="#FFFFFF"/>
	</g>
</g>
<g>
</g>
<g>
</g>
<g>
</g>
<g>
</g>
<g>
</g>
<g>
</g>
<g>
</g>
<g>
</g>
<g>
</g>
<g>
</g>
<g>
</g>
<g>
</g>
<g>
</g>
<g>
</g>
<g>
</g>
</svg>
